<svg version="1.1" id="Layer_1" xmlns="http://www.w3.org/2000/svg" xmlns:xlink="http://www.w3.org/1999/xlink" x="0px" y="0px"
	 viewBox="0 0 193.21 192.92" style="enable-background:new 0 0 193.21 192.92;" xml:space="preserve">
<style type="text/css">
	.st0{fill:#D0E4FF;}
</style>
<g>
	<path class="st0" d="M62.09,118.91c9.31-9.78,18.1-17.82,25.3-27.09c3.55-4.57,4.3-11.38,6.12-17.24
		c3.44-11.11,6.69-22.28,10.08-33.41c2.27-7.45,6.3-10.91,14.09-11.11c10.82-0.29,21.67-0.29,32.49-0.01
		c8.85,0.23,12.47,4.3,12.52,13.27c0.06,10.5,0.06,21,0,31.49c-0.05,8.29-2.56,11.78-10.46,14.29
		c-15.69,4.98-31.41,9.84-47.11,14.78c-1.41,0.44-3.1,0.76-4.07,1.72c-8.41,8.28-16.68,16.69-26.14,26.22
		c2.71,2.25,5.12,4.54,7.85,6.35c1.1,0.73,3.18,1.01,4.35,0.48c8.04-3.62,16.2-7.09,23.8-11.51c2.99-1.74,5.21-5.53,6.76-8.87
		c3.03-6.55,7.58-10.22,14.72-11.88c8.23-1.91,16.18-5,24.24-7.62c11.02-3.59,16.23-10.09,16.58-21.6c0.13-4.26,1.68-5.32,5.66-5.26
		c10.42,0.16,14.29,3.78,14.3,14.06c0.01,5.5-0.16,11,0.04,16.5c0.21,5.75-2.38,9.4-7.47,11.76c-23.7,10.99-47.27,22.25-71.08,33.01
		c-13.55,6.12-27.09,12.01-35.92,24.97c-1.45-0.94-2.38-1.34-3.05-2c-17.18-16.98-34.3-34.02-51.51-50.98
		c-2.19-2.16-3.56-4.25-0.58-6.51c12.57-9.57,17.48-23.98,23.84-37.46C57.95,53,68.36,30.68,78.75,8.35
		c2.51-5.4,6.56-8.23,12.5-8.26c6-0.03,12.01-0.23,17.99,0.07c8.9,0.44,14.75,9.52,11.43,17.65c-0.4,0.99-2.27,1.95-3.47,1.95
		c-12.7,0.06-19.91,6.75-23.39,18.52c-2.64,8.93-5.79,17.7-8.42,26.62c-1.1,3.74-2.77,6.52-6.49,8.16
		c-3.03,1.34-5.96,3.05-8.61,5.03c-2.03,1.52-4.03,3.47-5.2,5.68c-3.45,6.46-6.23,13.27-9.77,19.67c-2.06,3.74-1.69,6.23,1.57,8.86
		C58.53,113.63,59.59,115.67,62.09,118.91z"/>
	<path class="st0" d="M70.83,178.87c-14.46,14.23-30.98,17.53-47.05,10.44C8.53,182.59-0.9,166.94,0.07,149.47
		c0.52-9.33,4.76-17.12,10.71-24.16c2.68-3.17,4.24-0.93,5.98,0.81c13.88,13.87,27.7,27.8,41.65,41.6
		C62.28,171.55,66.52,175.02,70.83,178.87z"/>
</g>
</svg>
